<svg width="460" height="458" viewBox="0 0 460 458" fill="none" xmlns="http://www.w3.org/2000/svg">
<path class="path_1" d="M247.973 157L320.34 163.986L348.744 180.93L348.862 181H374.936L403.738 188.448L417.82 203H371.579L337.654 192.024L337.579 192H304.703L287.349 175.142L287.259 175.055L287.14 175.02L259.64 167.02L259.592 167.006L259.542 167.002L212.608 163.007L195.873 157H247.973Z" stroke="white"/>
<path class="path_2" d="M425 207.812L424.876 207.67L406.876 187.17L406.778 187.06L406.638 187.02L375.138 178.02L375.07 178H349.646L319.604 158.793L324.399 145.364L352.211 132.453L352.449 132.343L352.493 132.083L357.959 99.7803L367.62 92.5342L396.805 98.4707L420.67 114.381L453.028 149.726L457.987 182.953L446.555 216.755L425 243.579V207.812Z" stroke="white"/>
<path class="path_3" d="M365.786 90.708L354.723 98.084L354.54 98.2061L354.506 98.4229L349.547 130.156L322.293 142.545L322.104 142.631L322.031 142.826L315.665 159.964L256.05 154.003L256.025 154H201.484L233.592 147.491L274.047 141.997L274.048 141.998L305.048 138.998L305.317 138.972L305.443 138.732L316.443 117.732L316.5 117.623V88.3037L329.562 81.5312L365.786 90.708Z" stroke="white"/>
<path class="path_4"  d="M346 111.447V117.685L335.888 122.5H325.24L337.678 110.522L346 111.447Z" stroke="white"/>
<path class="path_5" d="M273.861 18.4805L321.74 34.9385L342.139 53.3467L349.616 62.3203L350.5 63.3809V54.8662L357.021 66.1699L360.383 86.9199L330.878 79.083L324.469 61.8262L324.43 61.7197L324.349 61.6416L306.849 44.6416L306.14 43.9531L306.005 44.9316L304.132 58.5078L278.831 36.126L278.777 36.0781L278.713 36.0479L205.756 1.6875L273.861 18.4805Z" stroke="white"/>
<path class="path_6" d="M278.723 38.9229L305.164 62.8701L305.862 63.502L305.995 62.5703L307.34 53.1553L313.122 59.8271L313.955 59.293L309.979 50.5449L321.074 60.7871L328.372 79.7607L313.271 87.5557L313.022 87.6836L313.002 87.9619L311.554 106.788L300.978 102.649L299.57 81.7168L299.565 81.6318L299.532 81.5547L287.96 54.3047L287.918 54.2051L287.839 54.1328L264.14 32.2568L278.723 38.9229Z" stroke="white"/>
<path class="path_7" d="M249.721 26.4238L283.094 57.3057L296.012 83.1426L297.895 101.495L289.947 96.1973L285.489 74.8975L285.438 74.6562L285.216 74.5488L240.259 53.0068L269.424 57.4941L269.76 56.5723L218.76 25.5723L218.682 25.5254L218.593 25.5088L150.712 12.6914L206.917 8.00781L249.721 26.4238Z" stroke="white"/>
<path class="path_8" d="M217.817 28.4736L257.2 52.1982L228.564 48.5039L228.214 49.4102L271.214 79.4102L271.799 78.5996L242.584 56.7979L282.561 76.3418L286.844 96.8047L269.226 92.043L241.305 70.6035L241.258 70.5674L241.205 70.5439L208.164 55.6992L220.091 53.4912L220.796 53.3613L220.43 52.7451L210.93 36.7451L210.822 36.5635L210.617 36.5137L163.117 25.0137L163.046 24.9971L162.972 25.001L123.228 27.2334L159.021 17.5117L217.817 28.4736Z" stroke="white"/>
<path class="path_9" d="M208.695 39.4404L216.678 51.1797L200.386 55.0137L198.922 55.3574L200.3 55.958L239.243 72.9326L264.277 92.2988L248.729 90.5225L243.261 85.0537L243.134 85.0186L203.729 74.0449L184.305 59.1035L184.227 59.0439L184.132 59.0176L120.132 41.5176L120.067 41.5H94.6396L141.574 29.9961L163.457 28.5039L208.695 39.4404Z" stroke="white"/>
<path class="path_10" d="M182.323 61.5L197.319 73.6846L179.92 76.5068L179.787 76.5283L179.684 76.6133L168.74 85.5664L155.806 91.0391L154.912 91.417L155.738 91.9258L168.663 99.8789L182.108 116.811L182.181 116.902L182.286 116.952L201.286 125.952L201.405 126.009L201.538 125.999L234.538 123.499L234.617 123.492L234.691 123.462L255.191 114.962L255.677 114.761L255.452 114.286L251 104.887V93.5674L269.906 95.9922L291.837 101.475L309.639 109.387L313.438 116.511L304.171 135.533L256.443 141.003L256.432 141.005L256.421 141.006L228.421 145.506L228.406 145.509L228.393 145.512L194.393 153.012L194.377 153.016L171.072 158.955L182.815 149.388L184.306 148.174L182.413 148.508L160.458 152.382L172.718 146.45L172.5 145.5H146.736L161.713 138.452L163.449 137.636L161.535 137.501L135.549 135.677L149.658 130.975L149.526 130.001L125.656 128.722L140.093 125.991L140.091 125.009L110.428 119.5H142L142.089 118.508L103.108 111.5H135L135.073 110.506L99.041 105.167L128.537 102.999L128.669 102.029L105.913 93.8711L128.453 95.998L128.693 95.0391L100.911 83.3877L128.444 86.4971L128.661 85.5264L107.109 78.207L141.932 82.9951L142.172 82.0303L129.286 77.3057L144.543 75.998L146.153 75.8604L144.746 75.0645L134.901 69.5H166.309L165.947 68.7764L162.309 61.5H182.323Z" stroke="white"/>
<path class="path_11" d="M217.37 80.4824L231.803 84.4639L243.953 91.7539L242.506 100.922L242.482 101.074L242.548 101.213L246.264 109.109L237.422 110.506L237.286 110.527L237.18 110.616L225.319 120.5H198.161L182.469 109.221L180.521 93.1426L191.761 78.4805L204.46 77.5039L217.37 80.4824Z" stroke="white"/>
<path class="path_12" d="M219.37 83.4912L232.61 89.8672L238.332 103.694L232.842 105.525L232.736 105.561L232.655 105.638L222.271 115.527L211.989 116.996L201.687 116.015L191.908 108.681L188.014 99.4307L189.465 88.7842L199.14 82.0117L219.37 83.4912Z" stroke="white"/>
<path class="path_13" d="M157.114 55.9111L160.296 65H128.235L128.542 65.7002L131.669 72.8486L118.085 70.5068L116.532 70.2393L124.066 77.7734L93.0763 73.0059L91.254 72.7256L92.6847 73.8877L99.5919 79.5H85.6788L87.2452 80.4297L101.68 89H85.0001L84.8145 89.9639L108.097 99.2764L82.9268 103.006L81.4591 103.223L82.7589 103.938L90.6827 108.296L70.0431 106.502L69.9669 106.495L69.8927 106.512L49.4376 111.012L49.4513 111.991L69.3087 115.801L42.4591 118.002L42.3419 118.975L61.7999 125.46L34.3643 133.216L34.5001 134.197H48.6339L9.6788 195.312L28.5929 133.844L27.713 133.399L12.713 153.692L15.9796 125.692L49.879 80.3867L89.2393 58.9395L90.5694 58.2139L89.0694 58.0049L70.3438 55.3916L117.985 45.0137L157.114 55.9111Z" stroke="white"/>
<path class="path_14" d="M211.369 167.482L211.423 167.497L211.479 167.5L258.917 169.497L276.552 174.74L261.741 189.551L211.371 203.017L211.344 203.024L211.318 203.034L163.818 221.534L163.699 221.58L163.617 221.678L105.117 291.178L105.095 291.205L105.076 291.235L75.0762 339.235L75.8643 339.842L112.304 301.004L88.0449 373.78L47.748 435.186L53.4844 413.126L52.541 412.801L34.4941 454.445L39.9893 414.607L51.4785 376.645L50.6465 376.146L44.5508 382.242L59.457 348.703L58.6641 348.129L50.0439 355.927L75.9375 301.743L124.328 226.912L211.672 194.97L211.415 194.008L166.454 201.789L201.653 190.476L201.453 189.502L124.663 196.687L192.103 182.489L191.987 181.5L123.262 183.25L187.563 174.996L187.543 174.002L144.366 170.287L187.487 161.014L211.369 167.482Z" stroke="white"/>
<path class="path_15" d="M99.2432 119.071L98.165 119.718L99.3926 119.988L122.914 125.163L109.796 131.044L109.979 132L132.475 132.937L124.218 138.587L123.011 139.413L124.471 139.499L148.305 140.9L136.75 147.567L135.133 148.5H162.04L147.261 156.562L147.598 157.49L175.71 151.867L163.793 162.019L134.014 164.996L99.5713 160.005L99.5615 160.004L99.5508 160.003L65.0508 156.503L65.0059 156.498L64.9609 156.502L41.541 158.338L57.6406 148.5H99.5L99.5352 147.501L57.5352 144.501L57.4629 144.496L57.3916 144.512L45.4824 147.157L52.7041 139.512L79.4727 140.999L79.6621 140.027L63.5049 134.5H97.8359L112.704 145.403L113.354 144.646L99.7168 131.01L99.5244 131.001L69.9785 129.571L87.1797 117.483L104.83 115.719L99.2432 119.071Z" stroke="white"/>
<path class="path_16" d="M126.886 168.489L146.763 175.266L94.9404 181.504L94.8613 182.48L118.842 189.397L86.4072 195.509L86.3682 195.516L86.3311 195.529L40.3311 212.029L5.87793 223.828L21.2656 208.44L67.6484 193.978L67.3926 193.012L26.3926 202.012L26.3438 202.022L26.2969 202.043L6.66699 210.767L29.7344 189.961L50.5889 185.492L76.0586 182.496L76 181.5H52.9482L52.8984 181.511L26.3984 187.011L26.3096 187.028L26.2334 187.077L14.7305 194.319L35.7803 162.978L65.4854 160.502L126.886 168.489Z" stroke="white"/>
<path class="path_17" d="M145.638 202.5L111.898 209.511L112.026 210.499L155.404 208.216L116.355 220.021L116.157 220.081L116.06 220.263L98.6133 252.661L68.293 274.532L30.2471 282.685L82.7236 256.447L82.8994 256.359L82.9678 256.176L93.4678 228.176L92.5752 227.736L77.1465 252.62L26.2695 279.057L26.2373 279.073L26.209 279.094L2.10547 296.374L32.4092 253.288L31.7109 252.592L6.45898 270.497L26.833 240.398L77.7021 217.957L77.3252 217.031L26.3252 236.031L26.2031 236.077L26.1182 236.177L5.73828 260.261L15.9023 228.383L85.0908 202.5H145.638Z" stroke="white"/>
<path class="path_18" d="M59.5703 321.245L59.5527 321.274L59.5391 321.307L33.5391 383.307L33.5039 383.39L33.5 383.479L31.0098 442.729L13.1211 454.968L16.4805 425.697L29.3926 409.31L28.6865 408.61L9.3457 424.177L16.4668 395.692L31.9297 369.756L31.0957 369.205L14.6455 391.764L16.4932 369.591L22.4219 349.336L47.2441 335.437L46.8018 334.541L17.8018 347.041L17.6201 347.119L17.541 347.302L9.3877 366.181L12.9658 335.322L39.2266 321.945L39.3535 321.881L39.4277 321.76L54.9277 296.26L54.1309 295.663L33.6797 318.109L14.7646 329.546L36.8848 302.818L36.2627 302.061L17.7627 312.061L17.6455 312.123L17.5752 312.236L4.81738 332.739L8.96387 302.787L31.6914 287.15L66.0811 281.493L66.1826 281.477L66.2686 281.422L93.499 264.05L59.5703 321.245Z" stroke="white"/>
<path class="path_19" d="M286.251 177.458L300.183 191.39L266.169 188.594L279.649 176.043L286.251 177.458Z" stroke="white"/>
<path class="path_20" d="M126.5 403.889L126.453 403.788L112.526 373.946L122.985 331.118L122.036 330.812L104.192 374.953L102.007 354.047L124.95 276.24L152.651 243.193L162.504 318.564L162.511 318.615L162.527 318.662L173.527 350.662L173.552 350.734L173.598 350.796L192.947 377.092L183.522 407.352L183.492 407.449L183.503 407.552L184.806 420.152L165.5 392.84V379.793L164.646 380.646L158.127 387.165L159.498 372.547L159.673 370.68L158.592 372.212L153.5 379.425V363.07L152.562 364.757L148.5 372.069V350.5L147.559 350.265L144.551 355.902L146.5 276.012L145.503 275.944L138.503 338.444L138.497 338.501L138.504 338.559L143.361 379.848L139.312 376.609L138.229 375.743L138.511 377.102L147.511 420.602L147.517 420.633L147.527 420.663L156.188 445.734L140.962 428.27L132.489 388.396L131.502 388.542L133.486 411.862L126.5 421.906V403.889Z" stroke="white"/>
<path class="path_21" d="M338.691 194L345.085 206.788L338.304 201.603L337.189 200.751L337.514 202.115L342.916 224.883L334.965 204.815L334.016 205.124L342.089 236.57L332.455 215.294L331.521 215.643L339.653 242.888L328.452 219.285L327.509 219.592L333.659 252.397L324.975 226.342L324 226.5V239.042L324.007 239.084L327.507 259.584L327.526 259.694L327.591 259.787L339.397 276.654L323.435 263.212L316.979 241.855L316.006 242.079L320.506 270.079L320.532 270.239L342.576 292.283L319.651 277H315.177L315.044 277.294L308.643 291.467L304.986 276.382L304.006 276.421L302.463 286.06L300.491 275.409L299.5 275.5V287.099L294.036 277.432L300.482 253.631L299.604 253.194L284.769 272.393L293.922 249.291L304.836 239.37L304.917 239.297L304.96 239.197L312.457 221.704L319.947 206.724L319.057 206.269L302.098 238.688L289.046 250.39L293.976 235.154L293.134 234.66L282.229 246.402L288.438 232.743L296.416 220.777L295.759 220.062L284.054 226.52L306.863 202.343L306.157 201.636L283.358 223.065L298.801 194H338.691Z" stroke="white"/>
<path class="path_22" d="M293.23 194.911L274.083 232.715L261.627 246.667L261.556 246.747L261.523 246.85L249.638 284.406L246.992 269.413L246.902 268.904L246.397 269.011L238.183 270.739L245.902 260.297L246.787 259.101L245.359 259.521L238.425 261.56L246.886 251.318L246.268 250.558L236.768 255.558L236.595 255.648L236.529 255.832L228.529 278.332L228.231 279.17L229.102 278.989L243.056 276.102L245.002 296.049L245.108 297.133L245.861 296.346L256.861 284.846L256.952 284.751L256.984 284.623L265.454 251.241L280.12 234.742L275.011 258.896L274.785 259.964L275.741 259.438L284.694 254.514L276.019 285.364L275.623 286.771L276.798 285.901L289.268 276.664L285.009 298.906L284.959 299.166L299.646 313.854L300.458 313.3L292.39 294.792L307.698 299.431L340.737 343.325L330.343 336.13L315.389 317.686L314.547 318.211L320.379 330.772L312.251 326.067L310.768 325.208L311.556 326.73L324.751 352.179L301.812 338.604L269.861 305.154L269.125 305.83L287.598 326.8L312.977 366.112L310.747 380.832L303.45 365.782L303.409 365.698L303.341 365.634L281.341 345.134L281.284 345.082L281.215 345.049L249.78 330.08L235.833 317.627L235.087 318.281L243.587 330.781L243.644 330.865L243.729 330.92L269.1 347.336L277.156 366.137L260.832 351.626L260.034 352.183L264.784 364.275L238.829 341.623L238.032 342.178L243.158 355.691L230.814 351.577L219.465 335.293L214.506 313.474L219.485 269.658L232.433 247.25L231.591 246.712L216.091 268.712L216.02 268.814L216.004 268.938L210.504 312.938L210.496 313.003L210.505 313.068L214.108 339.199L202.017 315.911L207.486 276.63L219.402 247.335L249.77 227.921L249.25 227.067L217.25 245.567L217.102 245.652L217.037 245.811L204.537 276.311L204.515 276.366L204.506 276.425L198.006 319.425L197.98 319.594L198.062 319.743L210.513 342.154L212.002 356.543V356.544L214.354 383.363L197.446 361.759L182.513 317.953L187.994 282.075L187.014 281.884L178.014 319.384L177.98 319.523L178.026 319.66L191.026 358.16L191.055 358.243L191.109 358.312L211.331 383.697L183.918 360.199L167.491 319.382L164.019 282.182L196.358 248.849H196.359L196.364 248.843L220.864 222.843L220.167 222.127L192.667 246.627L192.655 246.638L192.644 246.649L164.642 275.102L183.886 243.326L207.329 222.877L206.707 222.095L183.207 239.095L183.135 239.147L183.085 239.221L162.286 270.177L157.019 238.574L163.857 224.409L264.552 191.509L293.23 194.911Z" stroke="white"/>
<path class="path_0" d="M433.068 355.258L456.282 405.627L439.424 378.734L438.542 379.201L443.062 389.475L414.841 363.135L414.043 363.702L435.064 411.229L417.907 387.209L417.898 387.197L417.89 387.187L403.39 369.187L402.536 369.687L416.98 405.549L414.397 418.895L410.979 407.358L410.503 405.75L410.021 407.356L408.883 411.148L396.947 387.276L396.014 387.616L403.692 419.773L365.299 391.1L364.678 390.635L364.512 391.394L361.152 406.747L318.035 383.719L320.887 359.482L333.177 369.882L334.338 370.863L333.986 369.385L327.243 340.968L352.263 354.44L352.905 353.706L339.269 334.897L351.358 338.479L351.851 337.644L322.454 308.699L361.239 332.427L361.81 331.607L316.951 296.265L351.261 314.939L351.848 314.141L323.916 287.125L357.265 304.941L357.279 304.949L357.295 304.956L387.202 318.414L409.135 341.842L409.888 341.185L387.888 314.185L387.813 314.094L387.707 314.045L359.302 301.088L343.03 282.957L358.862 287.48L359.973 287.798L359.444 286.771L342.938 254.704L355.2 263.9L356.562 264.922L355.969 263.325L349.145 244.986L433.068 355.258Z" stroke="white"/>
<circle cx="213.5" cy="97.5" r="9" stroke="white"/>
</svg>
