<svg width="543" height="690" viewBox="0 0 543 690" fill="none" xmlns="http://www.w3.org/2000/svg">
<path d="M271 154L322 282L271 690L220 282L271 154Z" />
<path d="M252.5 154L203 276L0 154H252.5Z" />
<path d="M290 154L339.5 276L542.5 154H290Z" />
<path d="M489.296 157.907C500.736 192.458 503.847 229.232 498.376 265.22C492.905 301.207 479.006 335.384 457.818 364.952C436.63 394.52 408.755 418.639 376.476 435.333C344.197 452.027 308.432 460.822 272.108 460.997C235.785 461.173 199.937 452.724 167.499 436.342C135.061 419.961 106.955 396.113 85.4839 366.751C64.0126 337.388 49.7859 303.347 43.9686 267.414C38.1514 231.481 40.9091 194.679 52.016 160.019L100.871 175.744C92.2422 202.67 90.0997 231.262 94.6191 259.179C99.1385 287.095 110.191 313.542 126.872 336.353C143.553 359.165 165.389 377.692 190.59 390.419C215.791 403.146 243.642 409.71 271.861 409.574C300.081 409.437 327.867 402.605 352.945 389.635C378.022 376.665 399.678 357.928 416.139 334.956C432.6 311.984 443.398 285.432 447.649 257.474C451.899 229.515 449.482 200.945 440.594 174.103L489.296 157.907Z" />
</svg>
