<svg width="503" height="502" viewBox="0 0 503 502" xmlns="http://www.w3.org/2000/svg">
<path d="M251 0L302 119.881L267 502H235L200 119.881L251 0Z" />
<path d="M469.296 3.90723C480.736 38.4576 483.847 75.2323 478.376 111.22C472.905 147.207 459.006 181.384 437.818 210.952C416.63 240.52 388.756 264.639 356.477 281.333C324.198 298.027 288.432 306.822 252.108 306.997C215.785 307.173 179.937 298.724 147.499 282.343C115.061 265.961 86.9547 242.113 65.4834 212.751C44.0121 183.389 29.786 149.347 23.9687 113.414C18.1516 77.4813 20.9089 40.6786 32.0156 6.01953L80.8711 21.7432C72.2422 48.6699 70.0997 77.2624 74.6191 105.179C79.1385 133.095 90.191 159.542 106.872 182.354C123.553 205.165 145.389 223.692 170.59 236.419C195.791 249.146 223.642 255.71 251.861 255.573C280.081 255.437 307.867 248.604 332.944 235.635C358.022 222.665 379.678 203.928 396.139 180.956C412.6 157.984 423.398 131.432 427.648 103.474C431.899 75.515 429.482 46.9447 420.595 20.1025L469.296 3.90723Z" />
<path d="M340.667 97.0781L302 0H502.201L340.667 97.0781Z" />
<path d="M161.131 96.8369L0 0H199.703L161.131 96.8369Z" />
</svg>
