<svg width="750" height="750" viewBox="0 0 750 750" fill="none" xmlns="http://www.w3.org/2000/svg">
<path class="star star_12 fill-white" d="M680.138 543.429L680.25 543.774H697.237L683.788 553.546L683.494 553.76L683.606 554.105L688.743 569.916L675.294 560.145L675 559.931L674.706 560.145L661.256 569.916L666.394 554.105L666.506 553.76L666.212 553.546L652.763 543.774H669.75L669.862 543.429L675 527.617L680.138 543.429Z" stroke="white"/>
<path class="star star_1 fill-white" d="M730.138 361.429L730.25 361.774H747.237L733.788 371.546L733.494 371.76L733.606 372.105L738.743 387.916L725.294 378.145L725 377.931L724.706 378.145L711.256 387.916L716.394 372.105L716.506 371.76L716.212 371.546L702.763 361.774H719.75L719.862 361.429L725 345.617L730.138 361.429Z" stroke="white"/>
<path class="star star_2 fill-white" d="M680.138 194.429L680.25 194.774H697.237L683.788 204.546L683.494 204.76L683.606 205.105L688.743 220.916L675.294 211.145L675 210.931L674.706 211.145L661.256 220.916L666.394 205.105L666.506 204.76L666.212 204.546L652.763 194.774H669.75L669.862 194.429L675 178.617L680.138 194.429Z" stroke="white"/>
<path class="star star_3 fill-white" d="M559.138 72.4287L559.25 72.7744H576.237L562.788 82.5459L562.494 82.7598L562.606 83.1055L567.743 98.916L554.294 89.1445L554 88.9307L553.706 89.1445L540.256 98.916L545.394 83.1055L545.506 82.7598L545.212 82.5459L531.763 72.7744H548.75L548.862 72.4287L554 56.6172L559.138 72.4287Z" stroke="white"/>
<path class="star star_4 fill-white" d="M389.138 17.4287L389.25 17.7744H406.237L392.788 27.5459L392.494 27.7598L392.606 28.1055L397.743 43.916L384.294 34.1445L384 33.9307L383.706 34.1445L370.256 43.916L375.394 28.1055L375.506 27.7598L375.212 27.5459L361.763 17.7744H378.75L378.862 17.4287L384 1.61719L389.138 17.4287Z" stroke="white"/>
<path class="star star_5  fill-white" d="M201.138 72.4287L201.25 72.7744H218.237L204.788 82.5459L204.494 82.7598L204.606 83.1055L209.743 98.916L196.294 89.1445L196 88.9307L195.706 89.1445L182.256 98.916L187.394 83.1055L187.506 82.7598L187.212 82.5459L173.763 72.7744H190.75L190.862 72.4287L196 56.6172L201.138 72.4287Z" stroke="white"/>
<path class="star star_6  fill-white" d="M80.1377 194.429L80.25 194.774H97.2373L83.7881 204.546L83.4941 204.76L83.6064 205.105L88.7432 220.916L75.2939 211.145L75 210.931L74.7061 211.145L61.2559 220.916L66.3936 205.105L66.5059 204.76L66.2119 204.546L52.7627 194.774H69.75L69.8623 194.429L75 178.617L80.1377 194.429Z" stroke="white"/>
<path class="star star_7 fill-white" d="M30.1377 361.429L30.25 361.774H47.2373L33.7881 371.546L33.4941 371.76L33.6064 372.105L38.7432 387.916L25.2939 378.145L25 377.931L24.7061 378.145L11.2559 387.916L16.3936 372.105L16.5059 371.76L16.2119 371.546L2.7627 361.774H19.75L19.8623 361.429L25 345.617L30.1377 361.429Z" stroke="white"/>
<path class="star star_8 fill-white" d="M80.1377 543.429L80.25 543.774H97.2373L83.7881 553.546L83.4941 553.76L83.6064 554.105L88.7432 569.916L75.2939 560.145L75 559.931L74.7061 560.145L61.2559 569.916L66.3936 554.105L66.5059 553.76L66.2119 553.546L52.7627 543.774H69.75L69.8623 543.429L75 527.617L80.1377 543.429Z" stroke="white"/>
<path class="star star_9 fill-white" d="M201.138 667.429L201.25 667.774H218.237L204.788 677.546L204.494 677.76L204.606 678.105L209.743 693.916L196.294 684.145L196 683.931L195.706 684.145L182.256 693.916L187.394 678.105L187.506 677.76L187.212 677.546L173.763 667.774H190.75L190.862 667.429L196 651.617L201.138 667.429Z" stroke="white"/>
<path class="star star_10 fill-white" d="M375.138 717.429L375.25 717.774H392.237L378.788 727.546L378.494 727.76L378.606 728.105L383.743 743.916L370.294 734.145L370 733.931L369.706 734.145L356.256 743.916L361.394 728.105L361.506 727.76L361.212 727.546L347.763 717.774H364.75L364.862 717.429L370 701.617L375.138 717.429Z" stroke="white"/>
<path class="star star_11 fill-white" d="M535.138 677.429L535.25 677.774H552.237L538.788 687.546L538.494 687.76L538.606 688.105L543.743 703.916L530.294 694.145L530 693.931L529.706 694.145L516.256 703.916L521.394 688.105L521.506 687.76L521.212 687.546L507.763 677.774H524.75L524.862 677.429L530 661.617L535.138 677.429Z" stroke="white"/>
</svg>
